<?xml version="1.0" standalone="no"?>
<!DOCTYPE svg PUBLIC "-//W3C//DTD SVG 20010904//EN"
 "http://www.w3.org/TR/2001/REC-SVG-20010904/DTD/svg10.dtd">
<svg version="1.0" xmlns="http://www.w3.org/2000/svg"
 width="320.000000pt" height="320.000000pt" viewBox="0 0 320.000000 320.000000"
 preserveAspectRatio="xMidYMid meet">
<metadata>
Created by potrace 1.11, written by Peter Selinger 2001-2013
</metadata>
<g transform="translate(0.000000,320.000000) scale(0.100000,-0.100000)"
fill="#000000" stroke="none">
<path d="M0 3024 c0 -164 1 -176 18 -169 64 25 175 45 256 45 314 0 591 -191
738 -508 66 -142 118 -332 118 -430 0 -24 -1 -24 -13 -8 -7 10 -22 16 -33 14
-25 -5 -21 -28 23 -145 35 -91 48 -108 59 -78 5 13 9 13 34 0 16 -8 49 -34 75
-57 l47 -43 -468 -5 c-408 -4 -469 -7 -469 -20 0 -13 69 -15 558 -15 l557 0 0
-202 0 -203 80 0 c134 0 191 46 213 175 12 72 -8 155 -48 203 -30 36 -32 46
-6 32 13 -7 263 -10 740 -10 l721 0 0 800 0 800 -1600 0 -1600 0 0 -176z
m1678 -140 c50 -20 98 -68 130 -129 24 -45 27 -61 27 -150 0 -97 -1 -102 -37
-165 -51 -90 -106 -124 -198 -124 -77 0 -120 21 -174 87 -120 147 -69 411 94
481 46 20 111 20 158 0z m11 -1311 c14 -11 36 -39 49 -64 19 -36 23 -55 19
-105 -2 -34 -13 -75 -22 -92 -23 -39 -86 -74 -125 -70 l-31 3 0 145 c0 80 0
160 0 179 l1 34 42 -6 c23 -3 53 -14 67 -24z"/>
<path d="M552 2034 c-13 -8 -22 -26 -22 -40 0 -15 -6 -24 -15 -24 -8 0 -15 -7
-15 -15 0 -8 7 -15 15 -15 12 0 15 -18 15 -99 0 -91 2 -100 20 -106 35 -11 40
3 40 104 0 92 1 99 21 104 23 6 17 27 -7 27 -9 0 -14 11 -14 34 0 42 -10 50
-38 30z"/>
<path d="M701 2031 c-7 -5 -13 -20 -13 -35 0 -19 -6 -26 -19 -26 -11 0 -19 -7
-19 -15 0 -8 9 -15 20 -15 19 0 20 -7 20 -106 0 -104 0 -105 23 -102 21 3 22
8 25 106 2 94 4 102 22 102 26 0 26 26 0 33 -15 4 -20 14 -20 36 0 31 -13 39
-39 22z"/>
<path d="M323 1970 c-75 -30 -84 -192 -14 -230 39 -20 91 -12 122 19 26 26 29
36 29 90 0 52 -4 65 -27 90 -31 32 -76 45 -110 31z m93 -56 c26 -39 23 -113
-5 -136 -27 -21 -61 -24 -79 -6 -13 13 -17 149 -5 161 3 4 21 7 39 7 25 0 38
-7 50 -26z"/>
<path d="M845 1944 c-44 -47 -45 -136 -4 -189 20 -25 25 -26 93 -21 39 3 72 5
74 5 1 1 1 52 0 114 l-3 112 -68 2 c-62 3 -70 1 -92 -23z m93 -16 c16 -16 16
-140 0 -156 -37 -37 -98 9 -98 73 0 71 60 121 98 83z"/>
<path d="M228 1633 c-25 -16 -58 -76 -58 -106 0 -50 24 -88 85 -136 60 -48 65
-54 65 -91 0 -45 -26 -70 -75 -70 -38 1 -62 19 -76 59 -14 41 -39 41 -39 0 0
-22 10 -41 34 -65 30 -30 41 -34 84 -34 94 0 152 71 136 165 -7 41 -39 79
-117 138 -28 21 -37 35 -37 57 0 36 35 62 77 58 22 -2 28 1 28 17 0 16 -7 20
-40 22 -24 2 -51 -4 -67 -14z"/>
<path d="M400 1505 c0 -9 10 -46 21 -83 50 -158 77 -227 90 -227 7 0 19 20 26
44 7 24 14 46 17 48 2 2 12 -19 21 -47 27 -81 33 -72 100 144 22 72 33 122 27
128 -14 14 -27 -9 -57 -104 -16 -48 -31 -85 -35 -83 -17 11 -19 71 -4 122 12
40 13 58 5 66 -8 8 -14 3 -23 -21 -15 -40 -21 -40 -35 -2 -8 20 -18 30 -32 30
-31 0 -34 -19 -11 -84 20 -60 27 -128 11 -110 -5 5 -14 27 -21 49 -38 120 -51
145 -76 145 -15 0 -24 -6 -24 -15z"/>
<path d="M749 1516 c0 -3 -1 -75 -1 -158 l-1 -153 27 -3 27 -3 -3 158 c-3 155
-3 158 -25 161 -13 2 -23 1 -24 -2z"/>
<path d="M858 1508 c-3 -7 -3 -78 -2 -158 2 -123 5 -145 18 -148 14 -3 16 11
16 107 0 61 3 111 6 111 3 0 32 -21 65 -46 l59 -45 0 -65 c0 -50 3 -64 15 -64
13 0 15 25 15 161 0 124 -3 160 -12 157 -7 -3 -14 -25 -16 -51 -2 -26 -5 -47
-8 -47 -2 0 -34 23 -69 50 -68 53 -80 58 -87 38z"/>
<path d="M1155 1498 c-36 -28 -65 -92 -65 -146 0 -84 48 -150 117 -159 56 -7
96 16 123 71 20 43 24 82 8 78 -5 -1 -35 -2 -69 -2 -60 0 -60 0 -57 -27 2 -22
9 -28 28 -29 69 -4 66 -2 40 -29 -27 -29 -71 -33 -94 -10 -39 40 -40 172 -1
215 24 26 65 25 99 -1 20 -15 31 -18 38 -11 8 8 2 20 -20 41 -39 39 -104 43
-147 9z"/>
<path d="M1866 1446 c-14 -41 -26 -79 -26 -85 0 -6 -11 -16 -25 -21 -28 -10
-33 -28 -11 -36 12 -5 12 -10 0 -39 -17 -43 -18 -65 -1 -65 7 0 21 23 31 51
18 50 19 50 59 47 38 -3 40 -5 55 -50 13 -43 18 -48 45 -48 27 0 29 2 22 28
-19 80 -99 292 -110 292 -7 0 -24 -33 -39 -74z m42 -70 c12 -27 7 -36 -20 -36
-20 0 -21 4 -12 38 8 28 18 28 32 -2z"/>
<path d="M2050 1360 c0 -136 2 -160 15 -160 16 0 18 15 15 148 -1 39 2 72 5
72 8 0 63 -38 89 -62 11 -10 23 -18 28 -18 4 0 8 -31 8 -70 0 -54 3 -70 14
-70 19 0 22 33 18 193 -2 94 -6 127 -15 124 -7 -2 -14 -25 -17 -51 l-5 -47
-65 50 c-36 28 -71 51 -77 51 -10 0 -13 -39 -13 -160z"/>
<path d="M2345 1498 c-37 -29 -55 -76 -55 -144 0 -100 51 -164 131 -164 42 0
86 30 100 68 13 33 -7 56 -25 28 -39 -66 -94 -76 -127 -23 -27 43 -24 164 5
196 24 26 66 27 99 1 29 -23 47 -26 47 -7 -1 58 -119 89 -175 45z"/>
<path d="M2580 1510 c-1 -5 -1 -76 -1 -157 l-1 -148 76 -3 c63 -2 76 0 76 13
0 11 -12 15 -50 15 l-50 0 0 75 c0 75 0 75 28 76 33 1 74 8 80 14 3 2 2 11 -1
20 -5 11 -21 15 -57 15 -48 0 -51 2 -48 23 2 18 11 23 48 27 31 3 45 10 45 20
0 12 -16 16 -72 18 -46 2 -73 -1 -73 -8z"/>
<path d="M108 1134 c-5 -4 -8 -13 -8 -21 0 -11 120 -13 678 -13 373 0 681 -3
685 -6 10 -11 -20 -93 -47 -124 -14 -17 -28 -47 -31 -68 -4 -20 -11 -48 -18
-62 -11 -25 -11 -25 -15 -3 -2 12 -24 40 -49 63 -31 27 -43 45 -39 56 4 11 12
14 24 9 40 -17 52 -17 52 -2 0 8 -14 20 -30 26 -53 18 -100 -14 -100 -70 0
-13 19 -39 50 -67 28 -25 50 -51 50 -58 0 -24 -41 -27 -71 -5 -29 21 -29 21
-29 2 0 -22 27 -41 59 -41 12 0 21 -3 21 -7 -1 -14 -114 -89 -160 -107 -66
-26 -202 -32 -271 -12 -105 31 -218 122 -289 234 -30 47 -37 52 -60 46 -66
-18 -112 -23 -200 -23 -101 -1 -185 15 -263 48 l-47 20 0 -474 0 -475 1600 0
1600 0 0 203 0 202 -22 -45 c-29 -60 -111 -140 -173 -170 -42 -21 -65 -25
-140 -25 -75 0 -98 4 -140 25 -109 53 -196 175 -218 307 l-11 63 -101 2 c-55
1 -82 3 -60 5 22 3 45 9 51 14 8 7 14 6 19 -1 9 -15 48 -13 39 3 -6 9 -4 9 7
-1 31 -29 46 -15 52 51 21 221 189 379 388 365 109 -8 210 -71 278 -175 l31
-46 0 70 c0 43 -6 82 -15 99 -8 16 -15 25 -16 19 -3 -21 -17 52 -18 93 -1 38
1 42 24 42 17 0 25 5 25 18 0 16 -81 17 -1543 20 -848 2 -1545 0 -1549 -4z"/>
</g>
</svg>
